<?xml version="1.0" encoding="UTF-8" standalone="no"?><svg xmlns="http://www.w3.org/2000/svg" xmlns:xlink="http://www.w3.org/1999/xlink" contentScriptType="application/ecmascript" contentStyleType="text/css" height="1396px" preserveAspectRatio="none" style="width:1117px;height:1396px;" version="1.1" viewBox="0 0 1117 1396" width="1117px" zoomAndPan="magnify"><defs><filter height="300%" id="flklyi0m1gnk9" width="300%" x="-1" y="-1"><feGaussianBlur result="blurOut" stdDeviation="2.0"/><feColorMatrix in="blurOut" result="blurOut2" type="matrix" values="0 0 0 0 0 0 0 0 0 0 0 0 0 0 0 0 0 0 .4 0"/><feOffset dx="4.0" dy="4.0" in="blurOut2" result="blurOut3"/><feBlend in="SourceGraphic" in2="blurOut3" mode="normal"/></filter></defs><g><rect fill="#FFFFFF" filter="url(#flklyi0m1gnk9)" height="105.0547" style="stroke:#000000;stroke-width:2.0;" width="454.5" x="581.5" y="58.6094"/><rect fill="#FFFFFF" filter="url(#flklyi0m1gnk9)" height="497.2734" style="stroke:#000000;stroke-width:2.0;" width="1080" x="20" y="177.6641"/><rect fill="#FFFFFF" filter="url(#flklyi0m1gnk9)" height="148.4063" style="stroke:#000000;stroke-width:2.0;" width="270.5" x="581.5" y="203.0156"/><rect fill="#FFFFFF" filter="url(#flklyi0m1gnk9)" height="148.4063" style="stroke:#000000;stroke-width:2.0;" width="267.5" x="822.5" y="458.8281"/><rect fill="#FFFFFF" filter="url(#flklyi0m1gnk9)" height="632.4375" style="stroke:#000000;stroke-width:2.0;" width="1064" x="10" y="688.9375"/><rect fill="#FFFFFF" filter="url(#flklyi0m1gnk9)" height="261.8672" style="stroke:#000000;stroke-width:2.0;" width="1038" x="20" y="714.2891"/><rect fill="#FFFFFF" filter="url(#flklyi0m1gnk9)" height="61.7031" style="stroke:#000000;stroke-width:2.0;" width="289.5" x="581.5" y="990.1563"/><rect fill="#FFFFFF" filter="url(#flklyi0m1gnk9)" height="248.5156" style="stroke:#000000;stroke-width:2.0;" width="1044" x="20" y="1065.8594"/><line style="stroke:#A80036;stroke-width:1.0;stroke-dasharray:5.0,5.0;" x1="65" x2="65" y1="41.6094" y2="1338.375"/><line style="stroke:#A80036;stroke-width:1.0;stroke-dasharray:5.0,5.0;" x1="344.5" x2="344.5" y1="41.6094" y2="1338.375"/><line style="stroke:#A80036;stroke-width:1.0;stroke-dasharray:5.0,5.0;" x1="624.5" x2="624.5" y1="41.6094" y2="1338.375"/><line style="stroke:#A80036;stroke-width:1.0;stroke-dasharray:5.0,5.0;" x1="865.5" x2="865.5" y1="41.6094" y2="1338.375"/><rect fill="#ADD8E6" filter="url(#flklyi0m1gnk9)" height="31.6094" style="stroke:#A80036;stroke-width:1.5;" width="66" x="30" y="5"/><text fill="#000000" font-family="sans-serif" font-size="14" lengthAdjust="spacing" textLength="52" x="37" y="26.5332">Platform</text><rect fill="#ADD8E6" filter="url(#flklyi0m1gnk9)" height="31.6094" style="stroke:#A80036;stroke-width:1.5;" width="66" x="30" y="1337.375"/><text fill="#000000" font-family="sans-serif" font-size="14" lengthAdjust="spacing" textLength="52" x="37" y="1358.9082">Platform</text><rect fill="#778899" filter="url(#flklyi0m1gnk9)" height="31.6094" style="stroke:#A80036;stroke-width:1.5;" width="85" x="300.5" y="5"/><text fill="#000000" font-family="sans-serif" font-size="14" lengthAdjust="spacing" textLength="71" x="307.5" y="26.5332">Middleware</text><rect fill="#778899" filter="url(#flklyi0m1gnk9)" height="31.6094" style="stroke:#A80036;stroke-width:1.5;" width="85" x="300.5" y="1337.375"/><text fill="#000000" font-family="sans-serif" font-size="14" lengthAdjust="spacing" textLength="71" x="307.5" y="1358.9082">Middleware</text><rect fill="#90EE90" filter="url(#flklyi0m1gnk9)" height="31.6094" style="stroke:#A80036;stroke-width:1.5;" width="63" x="591.5" y="5"/><text fill="#000000" font-family="sans-serif" font-size="14" lengthAdjust="spacing" textLength="49" x="598.5" y="26.5332">TalentA</text><rect fill="#90EE90" filter="url(#flklyi0m1gnk9)" height="31.6094" style="stroke:#A80036;stroke-width:1.5;" width="63" x="591.5" y="1337.375"/><text fill="#000000" font-family="sans-serif" font-size="14" lengthAdjust="spacing" textLength="49" x="598.5" y="1358.9082">TalentA</text><rect fill="#90EE90" filter="url(#flklyi0m1gnk9)" height="31.6094" style="stroke:#A80036;stroke-width:1.5;" width="63" x="832.5" y="5"/><text fill="#000000" font-family="sans-serif" font-size="14" lengthAdjust="spacing" textLength="49" x="839.5" y="26.5332">TalentB</text><rect fill="#90EE90" filter="url(#flklyi0m1gnk9)" height="31.6094" style="stroke:#A80036;stroke-width:1.5;" width="63" x="832.5" y="1337.375"/><text fill="#000000" font-family="sans-serif" font-size="14" lengthAdjust="spacing" textLength="49" x="839.5" y="1358.9082">TalentB</text><path d="M581.5,58.6094 L764.5,58.6094 L764.5,66.6094 L754.5,76.6094 L581.5,76.6094 L581.5,58.6094 " fill="#EEEEEE" style="stroke:#000000;stroke-width:1.0;"/><rect fill="none" height="105.0547" style="stroke:#000000;stroke-width:2.0;" width="454.5" x="581.5" y="58.6094"/><text fill="#000000" font-family="sans-serif" font-size="13" font-weight="bold" lengthAdjust="spacing" textLength="138" x="596.5" y="73.1045">Init / Configure Talent</text><line style="stroke:#A80036;stroke-width:1.0;" x1="625" x2="667" y1="99.3125" y2="99.3125"/><line style="stroke:#A80036;stroke-width:1.0;" x1="667" x2="667" y1="99.3125" y2="112.3125"/><line style="stroke:#A80036;stroke-width:1.0;" x1="626" x2="667" y1="112.3125" y2="112.3125"/><polygon fill="#A80036" points="636,108.3125,626,112.3125,636,116.3125,632,112.3125" style="stroke:#A80036;stroke-width:1.0;"/><text fill="#000000" font-family="sans-serif" font-size="13" lengthAdjust="spacing" textLength="190" x="632" y="94.4561">RegisterFunction(&lt;myFunction&gt;)</text><line style="stroke:#A80036;stroke-width:1.0;" x1="866" x2="908" y1="142.6641" y2="142.6641"/><line style="stroke:#A80036;stroke-width:1.0;" x1="908" x2="908" y1="142.6641" y2="155.6641"/><line style="stroke:#A80036;stroke-width:1.0;" x1="867" x2="908" y1="155.6641" y2="155.6641"/><polygon fill="#A80036" points="877,151.6641,867,155.6641,877,159.6641,873,155.6641" style="stroke:#A80036;stroke-width:1.0;"/><text fill="#000000" font-family="sans-serif" font-size="13" lengthAdjust="spacing" textLength="151" x="873" y="137.8076">AddCallee(&lt;myFunction&gt;)</text><path d="M20,177.6641 L379,177.6641 L379,185.6641 L369,195.6641 L20,195.6641 L20,177.6641 " fill="#EEEEEE" style="stroke:#000000;stroke-width:1.0;"/><rect fill="none" height="497.2734" style="stroke:#000000;stroke-width:2.0;" width="1080" x="20" y="177.6641"/><text fill="#000000" font-family="sans-serif" font-size="13" font-weight="bold" lengthAdjust="spacing" textLength="314" x="35" y="192.1592">Talent Discovery (only important parts are shown)</text><path d="M581.5,203.0156 L752.5,203.0156 L752.5,211.0156 L742.5,221.0156 L581.5,221.0156 L581.5,203.0156 " fill="#EEEEEE" style="stroke:#000000;stroke-width:1.0;"/><rect fill="none" height="148.4063" style="stroke:#000000;stroke-width:2.0;" width="270.5" x="581.5" y="203.0156"/><text fill="#000000" font-family="sans-serif" font-size="13" font-weight="bold" lengthAdjust="spacing" textLength="126" x="596.5" y="217.5107">Create Talent Reply</text><line style="stroke:#A80036;stroke-width:1.0;" x1="625" x2="667" y1="243.7188" y2="243.7188"/><line style="stroke:#A80036;stroke-width:1.0;" x1="667" x2="667" y1="243.7188" y2="256.7188"/><line style="stroke:#A80036;stroke-width:1.0;" x1="626" x2="667" y1="256.7188" y2="256.7188"/><polygon fill="#A80036" points="636,252.7188,626,256.7188,636,260.7188,632,256.7188" style="stroke:#A80036;stroke-width:1.0;"/><text fill="#000000" font-family="sans-serif" font-size="13" lengthAdjust="spacing" textLength="111" x="632" y="238.8623">AddRulesToReply()</text><line style="stroke:#A80036;stroke-width:1.0;" x1="625" x2="667" y1="287.0703" y2="287.0703"/><line style="stroke:#A80036;stroke-width:1.0;" x1="667" x2="667" y1="287.0703" y2="300.0703"/><line style="stroke:#A80036;stroke-width:1.0;" x1="626" x2="667" y1="300.0703" y2="300.0703"/><polygon fill="#A80036" points="636,296.0703,626,300.0703,636,304.0703,632,300.0703" style="stroke:#A80036;stroke-width:1.0;"/><text fill="#000000" font-family="sans-serif" font-size="13" lengthAdjust="spacing" textLength="208" x="632" y="282.2139">AddOutputsToReply(&lt;MyFunction&gt;)</text><line style="stroke:#A80036;stroke-width:1.0;" x1="625" x2="667" y1="330.4219" y2="330.4219"/><line style="stroke:#A80036;stroke-width:1.0;" x1="667" x2="667" y1="330.4219" y2="343.4219"/><line style="stroke:#A80036;stroke-width:1.0;" x1="626" x2="667" y1="343.4219" y2="343.4219"/><polygon fill="#A80036" points="636,339.4219,626,343.4219,636,347.4219,632,343.4219" style="stroke:#A80036;stroke-width:1.0;"/><text fill="#000000" font-family="sans-serif" font-size="13" lengthAdjust="spacing" textLength="121" x="632" y="325.5654">AddCalleesToReply()</text><line style="stroke:#A80036;stroke-width:1.0;" x1="345" x2="355" y1="397.125" y2="393.125"/><line style="stroke:#A80036;stroke-width:1.0;" x1="345" x2="355" y1="397.125" y2="401.125"/><line style="stroke:#A80036;stroke-width:1.0;stroke-dasharray:2.0,2.0;" x1="345" x2="624" y1="397.125" y2="397.125"/><text fill="#000000" font-family="sans-serif" font-size="13" lengthAdjust="spacing" textLength="156" x="362" y="375.917">TalentsDiscoveryReplyMsg</text><text fill="#000000" font-family="sans-serif" font-size="13" lengthAdjust="spacing" textLength="252" x="366" y="392.2686">[TALENTS_DISCOVERY_RETURN_TOPIC]</text><line style="stroke:#A80036;stroke-width:1.0;" x1="65" x2="75" y1="443.8281" y2="439.8281"/><line style="stroke:#A80036;stroke-width:1.0;" x1="65" x2="75" y1="443.8281" y2="447.8281"/><line style="stroke:#A80036;stroke-width:1.0;stroke-dasharray:2.0,2.0;" x1="65" x2="865" y1="443.8281" y2="443.8281"/><text fill="#000000" font-family="sans-serif" font-size="13" lengthAdjust="spacing" textLength="156" x="82" y="422.6201">TalentsDiscoveryReplyMsg</text><text fill="#000000" font-family="sans-serif" font-size="13" lengthAdjust="spacing" textLength="252" x="86" y="438.9717">[TALENTS_DISCOVERY_RETURN_TOPIC]</text><path d="M822.5,458.8281 L993.5,458.8281 L993.5,466.8281 L983.5,476.8281 L822.5,476.8281 L822.5,458.8281 " fill="#EEEEEE" style="stroke:#000000;stroke-width:1.0;"/><rect fill="none" height="148.4063" style="stroke:#000000;stroke-width:2.0;" width="267.5" x="822.5" y="458.8281"/><text fill="#000000" font-family="sans-serif" font-size="13" font-weight="bold" lengthAdjust="spacing" textLength="126" x="837.5" y="473.3232">Create Talent Reply</text><line style="stroke:#A80036;stroke-width:1.0;" x1="866" x2="908" y1="499.5313" y2="499.5313"/><line style="stroke:#A80036;stroke-width:1.0;" x1="908" x2="908" y1="499.5313" y2="512.5313"/><line style="stroke:#A80036;stroke-width:1.0;" x1="867" x2="908" y1="512.5313" y2="512.5313"/><polygon fill="#A80036" points="877,508.5313,867,512.5313,877,516.5313,873,512.5313" style="stroke:#A80036;stroke-width:1.0;"/><text fill="#000000" font-family="sans-serif" font-size="13" lengthAdjust="spacing" textLength="111" x="873" y="494.6748">AddRulesToReply()</text><line style="stroke:#A80036;stroke-width:1.0;" x1="866" x2="908" y1="542.8828" y2="542.8828"/><line style="stroke:#A80036;stroke-width:1.0;" x1="908" x2="908" y1="542.8828" y2="555.8828"/><line style="stroke:#A80036;stroke-width:1.0;" x1="867" x2="908" y1="555.8828" y2="555.8828"/><polygon fill="#A80036" points="877,551.8828,867,555.8828,877,559.8828,873,555.8828" style="stroke:#A80036;stroke-width:1.0;"/><text fill="#000000" font-family="sans-serif" font-size="13" lengthAdjust="spacing" textLength="124" x="873" y="538.0264">AddOutputsToReply()</text><line style="stroke:#A80036;stroke-width:1.0;" x1="866" x2="908" y1="586.2344" y2="586.2344"/><line style="stroke:#A80036;stroke-width:1.0;" x1="908" x2="908" y1="586.2344" y2="599.2344"/><line style="stroke:#A80036;stroke-width:1.0;" x1="867" x2="908" y1="599.2344" y2="599.2344"/><polygon fill="#A80036" points="877,595.2344,867,599.2344,877,603.2344,873,599.2344" style="stroke:#A80036;stroke-width:1.0;"/><text fill="#000000" font-family="sans-serif" font-size="13" lengthAdjust="spacing" textLength="205" x="873" y="581.3779">AddCalleesToReply(&lt;MyFunction&gt;)</text><line style="stroke:#A80036;stroke-width:1.0;" x1="345" x2="355" y1="620.2344" y2="616.2344"/><line style="stroke:#A80036;stroke-width:1.0;" x1="345" x2="355" y1="620.2344" y2="624.2344"/><line style="stroke:#A80036;stroke-width:1.0;stroke-dasharray:2.0,2.0;" x1="345" x2="865" y1="620.2344" y2="620.2344"/><line style="stroke:#A80036;stroke-width:1.0;" x1="65" x2="75" y1="666.9375" y2="662.9375"/><line style="stroke:#A80036;stroke-width:1.0;" x1="65" x2="75" y1="666.9375" y2="670.9375"/><line style="stroke:#A80036;stroke-width:1.0;stroke-dasharray:2.0,2.0;" x1="65" x2="344" y1="666.9375" y2="666.9375"/><text fill="#000000" font-family="sans-serif" font-size="13" lengthAdjust="spacing" textLength="156" x="82" y="645.7295">TalentsDiscoveryReplyMsg</text><text fill="#000000" font-family="sans-serif" font-size="13" lengthAdjust="spacing" textLength="252" x="86" y="662.0811">[TALENTS_DISCOVERY_RETURN_TOPIC]</text><path d="M10,688.9375 L173,688.9375 L173,696.9375 L163,706.9375 L10,706.9375 L10,688.9375 " fill="#EEEEEE" style="stroke:#000000;stroke-width:1.0;"/><rect fill="none" height="632.4375" style="stroke:#000000;stroke-width:2.0;" width="1064" x="10" y="688.9375"/><text fill="#000000" font-family="sans-serif" font-size="13" font-weight="bold" lengthAdjust="spacing" textLength="118" x="25" y="703.4326">Call &lt;MyFunction&gt;</text><path d="M20,714.2891 L173,714.2891 L173,722.2891 L163,732.2891 L20,732.2891 L20,714.2891 " fill="#EEEEEE" style="stroke:#000000;stroke-width:1.0;"/><rect fill="none" height="261.8672" style="stroke:#000000;stroke-width:2.0;" width="1038" x="20" y="714.2891"/><text fill="#000000" font-family="sans-serif" font-size="13" font-weight="bold" lengthAdjust="spacing" textLength="108" x="35" y="728.7842">Forward Request</text><line style="stroke:#A80036;stroke-width:1.0;" x1="866" x2="908" y1="761.668" y2="761.668"/><line style="stroke:#A80036;stroke-width:1.0;" x1="908" x2="908" y1="761.668" y2="774.668"/><line style="stroke:#A80036;stroke-width:1.0;" x1="867" x2="908" y1="774.668" y2="774.668"/><polygon fill="#A80036" points="877,770.668,867,774.668,877,778.668,873,774.668" style="stroke:#A80036;stroke-width:1.0;"/><text fill="#000000" font-family="sans-serif" font-size="13" lengthAdjust="spacing" textLength="173" x="873" y="756.8115">Call(&lt;myFunction&gt;, [params])</text><path d="M667,737.6406 L667,779.6406 L857,779.6406 L857,747.6406 L847,737.6406 L667,737.6406 " fill="#FBFB77" filter="url(#flklyi0m1gnk9)" style="stroke:#A80036;stroke-width:1.0;"/><path d="M847,737.6406 L847,747.6406 L857,747.6406 L847,737.6406 " fill="#FBFB77" style="stroke:#A80036;stroke-width:1.0;"/><text fill="#000000" font-family="sans-serif" font-size="13" lengthAdjust="spacing" textLength="134" x="673" y="756.1357">Can be a awaitable call</text><text fill="#000000" font-family="sans-serif" font-size="13" lengthAdjust="spacing" textLength="169" x="673" y="772.4873">(e.g. in NodeJS/Python SDK)</text><line style="stroke:#A80036;stroke-width:1.0;" x1="345" x2="355" y1="828.0469" y2="824.0469"/><line style="stroke:#A80036;stroke-width:1.0;" x1="345" x2="355" y1="828.0469" y2="832.0469"/><line style="stroke:#A80036;stroke-width:1.0;" x1="345" x2="865" y1="828.0469" y2="828.0469"/><text fill="#000000" font-family="sans-serif" font-size="13" lengthAdjust="spacing" textLength="173" x="362" y="806.8389">IngestionMsg (&lt;MyFunction&gt;)</text><text fill="#000000" font-family="sans-serif" font-size="13" lengthAdjust="spacing" textLength="122" x="366" y="823.1904">[INGESTION_TOPIC]</text><line style="stroke:#A80036;stroke-width:1.0;" x1="65" x2="75" y1="874.75" y2="870.75"/><line style="stroke:#A80036;stroke-width:1.0;" x1="65" x2="75" y1="874.75" y2="878.75"/><line style="stroke:#A80036;stroke-width:1.0;" x1="65" x2="344" y1="874.75" y2="874.75"/><text fill="#000000" font-family="sans-serif" font-size="13" lengthAdjust="spacing" textLength="173" x="82" y="853.542">IngestionMsg (&lt;MyFunction&gt;)</text><text fill="#000000" font-family="sans-serif" font-size="13" lengthAdjust="spacing" textLength="119" x="86" y="869.8936">[INGESTON_TOPIC]</text><line style="stroke:#A80036;stroke-width:1.0;" x1="343" x2="333" y1="921.4531" y2="917.4531"/><line style="stroke:#A80036;stroke-width:1.0;" x1="343" x2="333" y1="921.4531" y2="925.4531"/><line style="stroke:#A80036;stroke-width:1.0;" x1="65" x2="344" y1="921.4531" y2="921.4531"/><text fill="#000000" font-family="sans-serif" font-size="13" lengthAdjust="spacing" textLength="169" x="72" y="900.2451">RequestMsg (&lt;MyFunction&gt;)</text><text fill="#000000" font-family="sans-serif" font-size="13" lengthAdjust="spacing" textLength="126" x="76" y="916.5967">[&lt;TALENTA_TOPIC&gt;]</text><line style="stroke:#A80036;stroke-width:1.0;" x1="623" x2="613" y1="968.1563" y2="964.1563"/><line style="stroke:#A80036;stroke-width:1.0;" x1="623" x2="613" y1="968.1563" y2="972.1563"/><line style="stroke:#A80036;stroke-width:1.0;" x1="345" x2="624" y1="968.1563" y2="968.1563"/><text fill="#000000" font-family="sans-serif" font-size="13" lengthAdjust="spacing" textLength="169" x="352" y="946.9482">RequestMsg (&lt;MyFunction&gt;)</text><text fill="#000000" font-family="sans-serif" font-size="13" lengthAdjust="spacing" textLength="126" x="356" y="963.2998">[&lt;TALENTA_TOPIC&gt;]</text><path d="M581.5,990.1563 L732.5,990.1563 L732.5,998.1563 L722.5,1008.1563 L581.5,1008.1563 L581.5,990.1563 " fill="#EEEEEE" style="stroke:#000000;stroke-width:1.0;"/><rect fill="none" height="61.7031" style="stroke:#000000;stroke-width:2.0;" width="289.5" x="581.5" y="990.1563"/><text fill="#000000" font-family="sans-serif" font-size="13" font-weight="bold" lengthAdjust="spacing" textLength="106" x="596.5" y="1004.6514">Execute Request</text><line style="stroke:#A80036;stroke-width:1.0;" x1="625" x2="667" y1="1030.8594" y2="1030.8594"/><line style="stroke:#A80036;stroke-width:1.0;" x1="667" x2="667" y1="1030.8594" y2="1043.8594"/><line style="stroke:#A80036;stroke-width:1.0;" x1="626" x2="667" y1="1043.8594" y2="1043.8594"/><polygon fill="#A80036" points="636,1039.8594,626,1043.8594,636,1047.8594,632,1043.8594" style="stroke:#A80036;stroke-width:1.0;"/><text fill="#000000" font-family="sans-serif" font-size="13" lengthAdjust="spacing" textLength="227" x="632" y="1026.0029">ExecuteBoundFunction(&lt;myFunction&gt;)</text><path d="M20,1065.8594 L167,1065.8594 L167,1073.8594 L157,1083.8594 L20,1083.8594 L20,1065.8594 " fill="#EEEEEE" style="stroke:#000000;stroke-width:1.0;"/><rect fill="none" height="248.5156" style="stroke:#000000;stroke-width:2.0;" width="1044" x="20" y="1065.8594"/><text fill="#000000" font-family="sans-serif" font-size="13" font-weight="bold" lengthAdjust="spacing" textLength="102" x="35" y="1080.3545">Route Response</text><line style="stroke:#A80036;stroke-width:1.0;" x1="345" x2="355" y1="1122.9141" y2="1118.9141"/><line style="stroke:#A80036;stroke-width:1.0;" x1="345" x2="355" y1="1122.9141" y2="1126.9141"/><line style="stroke:#A80036;stroke-width:1.0;" x1="345" x2="624" y1="1122.9141" y2="1122.9141"/><text fill="#000000" font-family="sans-serif" font-size="13" lengthAdjust="spacing" textLength="173" x="362" y="1101.7061">IngestionMsg (&lt;MyFunction&gt;)</text><text fill="#000000" font-family="sans-serif" font-size="13" lengthAdjust="spacing" textLength="122" x="366" y="1118.0576">[INGESTION_TOPIC]</text><line style="stroke:#A80036;stroke-width:1.0;" x1="65" x2="75" y1="1169.6172" y2="1165.6172"/><line style="stroke:#A80036;stroke-width:1.0;" x1="65" x2="75" y1="1169.6172" y2="1173.6172"/><line style="stroke:#A80036;stroke-width:1.0;" x1="65" x2="344" y1="1169.6172" y2="1169.6172"/><text fill="#000000" font-family="sans-serif" font-size="13" lengthAdjust="spacing" textLength="173" x="82" y="1148.4092">IngestionMsg (&lt;MyFunction&gt;)</text><text fill="#000000" font-family="sans-serif" font-size="13" lengthAdjust="spacing" textLength="122" x="86" y="1164.7607">[INGESTION_TOPIC]</text><line style="stroke:#A80036;stroke-width:1.0;" x1="343" x2="333" y1="1216.3203" y2="1212.3203"/><line style="stroke:#A80036;stroke-width:1.0;" x1="343" x2="333" y1="1216.3203" y2="1220.3203"/><line style="stroke:#A80036;stroke-width:1.0;" x1="65" x2="344" y1="1216.3203" y2="1216.3203"/><text fill="#000000" font-family="sans-serif" font-size="13" lengthAdjust="spacing" textLength="179" x="72" y="1195.1123">ResponseMsg (&lt;MyFunction&gt;)</text><text fill="#000000" font-family="sans-serif" font-size="13" lengthAdjust="spacing" textLength="126" x="76" y="1211.4639">[&lt;TALENTB_TOPIC&gt;]</text><line style="stroke:#A80036;stroke-width:1.0;" x1="864" x2="854" y1="1263.0234" y2="1259.0234"/><line style="stroke:#A80036;stroke-width:1.0;" x1="864" x2="854" y1="1263.0234" y2="1267.0234"/><line style="stroke:#A80036;stroke-width:1.0;" x1="345" x2="865" y1="1263.0234" y2="1263.0234"/><text fill="#000000" font-family="sans-serif" font-size="13" lengthAdjust="spacing" textLength="179" x="352" y="1241.8154">ResponseMsg (&lt;MyFunction&gt;)</text><text fill="#000000" font-family="sans-serif" font-size="13" lengthAdjust="spacing" textLength="126" x="356" y="1258.167">[&lt;TALENTB_TOPIC&gt;]</text><line style="stroke:#A80036;stroke-width:1.0;" x1="866" x2="908" y1="1293.375" y2="1293.375"/><line style="stroke:#A80036;stroke-width:1.0;" x1="908" x2="908" y1="1293.375" y2="1306.375"/><line style="stroke:#A80036;stroke-width:1.0;" x1="867" x2="908" y1="1306.375" y2="1306.375"/><polygon fill="#A80036" points="877,1302.375,867,1306.375,877,1310.375,873,1306.375" style="stroke:#A80036;stroke-width:1.0;"/><text fill="#000000" font-family="sans-serif" font-size="13" lengthAdjust="spacing" textLength="179" x="873" y="1288.5186">HandleResponse(returnValues)</text><text fill="#888888" font-family="sans-serif" font-size="10" lengthAdjust="spacing" textLength="151" x="959" y="1388.3652">IoT Event Analytics Version: 0.5</text><!--MD5=[f3659dcda74a10a60226e8a7633dfd80]
@startuml
/'
  Copyright (c) 2021 Bosch.IO GmbH

  This Source Code Form is subject to the terms of the Mozilla Public
  License, v. 2.0. If a copy of the MPL was not distributed with this
  file, You can obtain one at https://mozilla.org/MPL/2.0/.

  SPDX-License-Identifier: MPL-2.0
'/

    skinparam backgroundColor #FFFFF

    right footer "IoT Event Analytics Version: 0.5"

    participant Platform as Platform #LightBlue

    participant Middleware as Middleware #LightSlateGray

    participant TalentA as TalentA #LightGreen
    participant TalentB as TalentB #LightGreen

    group Init / Configure Talent
        TalentA -> TalentA: RegisterFunction(<myFunction>)
        TalentB -> TalentB: AddCallee(<myFunction>)
    end

    group Talent Discovery (only important parts are shown)
        group Create Talent Reply
            TalentA -> TalentA: AddRulesToReply()
            TalentA -> TalentA: AddOutputsToReply(<MyFunction>)
            TalentA -> TalentA: AddCalleesToReply()
        end
        TalentA - ->> Middleware: TalentsDiscoveryReplyMsg \n [TALENTS_DISCOVERY_RETURN_TOPIC]
        TalentB - ->> Platform: TalentsDiscoveryReplyMsg \n [TALENTS_DISCOVERY_RETURN_TOPIC]

        group Create Talent Reply
            TalentB -> TalentB: AddRulesToReply()
            TalentB -> TalentB: AddOutputsToReply()
            TalentB -> TalentB: AddCalleesToReply(<MyFunction>)
        end
        TalentB - ->> Middleware
        Middleware - ->> Platform: TalentsDiscoveryReplyMsg \n [TALENTS_DISCOVERY_RETURN_TOPIC]
    end

    group Call <MyFunction>
        group Forward Request
            TalentB -> TalentB: Call(<myFunction>, [params])

            note left
                Can be a awaitable call
                (e.g. in NodeJS/Python SDK)
            end note

            TalentB ->> Middleware: IngestionMsg (<MyFunction>) \n [INGESTION_TOPIC]
            Middleware ->> Platform: IngestionMsg (<MyFunction>) \n [INGESTON_TOPIC]

            Platform ->> Middleware: RequestMsg (<MyFunction>) \n [<TALENTA_TOPIC>]
            Middleware ->> TalentA: RequestMsg (<MyFunction>) \n [<TALENTA_TOPIC>]
        end

        group Execute Request
            TalentA -> TalentA: ExecuteBoundFunction(<myFunction>)
        end

        group Route Response
            TalentA ->> Middleware: IngestionMsg (<MyFunction>) \n [INGESTION_TOPIC]
            Middleware ->> Platform: IngestionMsg (<MyFunction>) \n [INGESTION_TOPIC]

            Platform ->> Middleware: ResponseMsg (<MyFunction>) \n [<TALENTB_TOPIC>]
            Middleware ->> TalentB: ResponseMsg (<MyFunction>) \n [<TALENTB_TOPIC>]

            TalentB -> TalentB: HandleResponse(returnValues)
        end
    end
@enduml

@startuml

    skinparam backgroundColor #FFFFF

    right footer "IoT Event Analytics Version: 0.5"

    participant Platform as Platform #LightBlue

    participant Middleware as Middleware #LightSlateGray

    participant TalentA as TalentA #LightGreen
    participant TalentB as TalentB #LightGreen

    group Init / Configure Talent
        TalentA -> TalentA: RegisterFunction(<myFunction>)
        TalentB -> TalentB: AddCallee(<myFunction>)
    end

    group Talent Discovery (only important parts are shown)
        group Create Talent Reply
            TalentA -> TalentA: AddRulesToReply()
            TalentA -> TalentA: AddOutputsToReply(<MyFunction>)
            TalentA -> TalentA: AddCalleesToReply()
        end
        TalentA - ->> Middleware: TalentsDiscoveryReplyMsg \n [TALENTS_DISCOVERY_RETURN_TOPIC]
        TalentB - ->> Platform: TalentsDiscoveryReplyMsg \n [TALENTS_DISCOVERY_RETURN_TOPIC]

        group Create Talent Reply
            TalentB -> TalentB: AddRulesToReply()
            TalentB -> TalentB: AddOutputsToReply()
            TalentB -> TalentB: AddCalleesToReply(<MyFunction>)
        end
        TalentB - ->> Middleware
        Middleware - ->> Platform: TalentsDiscoveryReplyMsg \n [TALENTS_DISCOVERY_RETURN_TOPIC]
    end

    group Call <MyFunction>
        group Forward Request
            TalentB -> TalentB: Call(<myFunction>, [params])

            note left
                Can be a awaitable call
                (e.g. in NodeJS/Python SDK)
            end note

            TalentB ->> Middleware: IngestionMsg (<MyFunction>) \n [INGESTION_TOPIC]
            Middleware ->> Platform: IngestionMsg (<MyFunction>) \n [INGESTON_TOPIC]

            Platform ->> Middleware: RequestMsg (<MyFunction>) \n [<TALENTA_TOPIC>]
            Middleware ->> TalentA: RequestMsg (<MyFunction>) \n [<TALENTA_TOPIC>]
        end

        group Execute Request
            TalentA -> TalentA: ExecuteBoundFunction(<myFunction>)
        end

        group Route Response
            TalentA ->> Middleware: IngestionMsg (<MyFunction>) \n [INGESTION_TOPIC]
            Middleware ->> Platform: IngestionMsg (<MyFunction>) \n [INGESTION_TOPIC]

            Platform ->> Middleware: ResponseMsg (<MyFunction>) \n [<TALENTB_TOPIC>]
            Middleware ->> TalentB: ResponseMsg (<MyFunction>) \n [<TALENTB_TOPIC>]

            TalentB -> TalentB: HandleResponse(returnValues)
        end
    end
@enduml

PlantUML version 1.2021.00(Sun Jan 10 11:25:05 CET 2021)
(GPL source distribution)
Java Runtime: OpenJDK Runtime Environment
JVM: OpenJDK 64-Bit Server VM
Default Encoding: Cp1252
Language: en
Country: US
--></g></svg>