<?xml version="1.0" encoding="UTF-8" standalone="no"?><svg xmlns="http://www.w3.org/2000/svg" xmlns:xlink="http://www.w3.org/1999/xlink" contentScriptType="application/ecmascript" contentStyleType="text/css" height="689px" preserveAspectRatio="none" style="width:948px;height:689px;" version="1.1" viewBox="0 0 948 689" width="948px" zoomAndPan="magnify"><defs><filter height="300%" id="f1r0vvyby0ap5v" width="300%" x="-1" y="-1"><feGaussianBlur result="blurOut" stdDeviation="2.0"/><feColorMatrix in="blurOut" result="blurOut2" type="matrix" values="0 0 0 0 0 0 0 0 0 0 0 0 0 0 0 0 0 0 .4 0"/><feOffset dx="4.0" dy="4.0" in="blurOut2" result="blurOut3"/><feBlend in="SourceGraphic" in2="blurOut3" mode="normal"/></filter></defs><g><!--MD5=[d64883541e3d62e3241c4d12decf100d]
cluster Application--><polygon fill="#D3D3D3" filter="url(#f1r0vvyby0ap5v)" points="16,16,26,6,931,6,931,331,921,341,16,341,16,16" style="stroke:#000000;stroke-width:1.5;"/><line style="stroke:#000000;stroke-width:1.5;" x1="921" x2="931" y1="16" y2="6"/><line style="stroke:#000000;stroke-width:1.5;" x1="16" x2="921" y1="16" y2="16"/><line style="stroke:#000000;stroke-width:1.5;" x1="921" x2="921" y1="16" y2="341"/><text fill="#000000" font-family="sans-serif" font-size="14" font-weight="bold" lengthAdjust="spacing" textLength="78" x="430.5" y="33.5332">Application</text><!--MD5=[46319df2d1c5fe27116f23a003a0a914]
cluster Platform--><polygon fill="#ADD8E6" filter="url(#f1r0vvyby0ap5v)" points="304,73,314,63,899,63,899,299,889,309,304,309,304,73" style="stroke:#000000;stroke-width:1.5;"/><line style="stroke:#000000;stroke-width:1.5;" x1="889" x2="899" y1="73" y2="63"/><line style="stroke:#000000;stroke-width:1.5;" x1="304" x2="889" y1="73" y2="73"/><line style="stroke:#000000;stroke-width:1.5;" x1="889" x2="889" y1="73" y2="309"/><text fill="#000000" font-family="sans-serif" font-size="14" font-weight="bold" lengthAdjust="spacing" textLength="58" x="568.5" y="90.5332">Platform</text><!--MD5=[406b65fecc21e832f7a9b6ebadc6dce1]
cluster Client--><polygon fill="#90EE90" filter="url(#f1r0vvyby0ap5v)" points="40,81,50,71,272,71,272,291,262,301,40,301,40,81" style="stroke:#000000;stroke-width:1.5;"/><line style="stroke:#000000;stroke-width:1.5;" x1="262" x2="272" y1="81" y2="71"/><line style="stroke:#000000;stroke-width:1.5;" x1="40" x2="262" y1="81" y2="81"/><line style="stroke:#000000;stroke-width:1.5;" x1="262" x2="262" y1="81" y2="301"/><text fill="#000000" font-family="sans-serif" font-size="14" font-weight="bold" lengthAdjust="spacing" textLength="41" x="131.5" y="98.5332">Client</text><!--MD5=[89eb4d3465d33cc61b3f2b98336adc50]
cluster Transport--><polygon fill="#778899" filter="url(#f1r0vvyby0ap5v)" points="158,383,168,373,906,373,906,501,896,511,158,511,158,383" style="stroke:#000000;stroke-width:1.5;"/><line style="stroke:#000000;stroke-width:1.5;" x1="896" x2="906" y1="383" y2="373"/><line style="stroke:#000000;stroke-width:1.5;" x1="158" x2="896" y1="383" y2="383"/><line style="stroke:#000000;stroke-width:1.5;" x1="896" x2="896" y1="383" y2="511"/><text fill="#000000" font-family="sans-serif" font-size="14" font-weight="bold" lengthAdjust="spacing" textLength="110" x="473" y="400.5332">Transport Layer</text><!--MD5=[f751332d9083dbc36892b4dab0075a61]
cluster Physical--><polygon fill="#D3D3D3" filter="url(#f1r0vvyby0ap5v)" points="135,553,145,543,856,543,856,655,846,665,135,665,135,553" style="stroke:#000000;stroke-width:1.5;"/><line style="stroke:#000000;stroke-width:1.5;" x1="846" x2="856" y1="553" y2="543"/><line style="stroke:#000000;stroke-width:1.5;" x1="135" x2="846" y1="553" y2="553"/><line style="stroke:#000000;stroke-width:1.5;" x1="846" x2="846" y1="553" y2="665"/><text fill="#000000" font-family="sans-serif" font-size="14" font-weight="bold" lengthAdjust="spacing" textLength="99" x="442" y="570.5332">Physical Layer</text><!--MD5=[90321d3428f34f81b6d3c135b020a40c]
entity ConfigManager--><rect fill="#FEFECE" filter="url(#f1r0vvyby0ap5v)" height="47.6094" style="stroke:#A80036;stroke-width:1.5;" width="137" x="718.5" y="112"/><rect fill="#FEFECE" height="10" style="stroke:#A80036;stroke-width:1.5;" width="15" x="835.5" y="117"/><rect fill="#FEFECE" height="2" style="stroke:#A80036;stroke-width:1.5;" width="4" x="833.5" y="119"/><rect fill="#FEFECE" height="2" style="stroke:#A80036;stroke-width:1.5;" width="4" x="833.5" y="123"/><text fill="#000000" font-family="sans-serif" font-size="14" lengthAdjust="spacing" textLength="97" x="733.5" y="146.5332">ConfigManager</text><!--MD5=[7a980fe5388f2c0b48dbfb0a8ec1f254]
entity Routing--><rect fill="#FEFECE" filter="url(#f1r0vvyby0ap5v)" height="47.6094" style="stroke:#A80036;stroke-width:1.5;" width="89" x="594.5" y="112"/><rect fill="#FEFECE" height="10" style="stroke:#A80036;stroke-width:1.5;" width="15" x="663.5" y="117"/><rect fill="#FEFECE" height="2" style="stroke:#A80036;stroke-width:1.5;" width="4" x="661.5" y="119"/><rect fill="#FEFECE" height="2" style="stroke:#A80036;stroke-width:1.5;" width="4" x="661.5" y="123"/><text fill="#000000" font-family="sans-serif" font-size="14" lengthAdjust="spacing" textLength="49" x="609.5" y="146.5332">Routing</text><!--MD5=[ae7076b9f32c34d4ddc3e56ff44d3bce]
entity Ingestion--><rect fill="#FEFECE" filter="url(#f1r0vvyby0ap5v)" height="47.6094" style="stroke:#A80036;stroke-width:1.5;" width="97" x="462.5" y="112"/><rect fill="#FEFECE" height="10" style="stroke:#A80036;stroke-width:1.5;" width="15" x="539.5" y="117"/><rect fill="#FEFECE" height="2" style="stroke:#A80036;stroke-width:1.5;" width="4" x="537.5" y="119"/><rect fill="#FEFECE" height="2" style="stroke:#A80036;stroke-width:1.5;" width="4" x="537.5" y="123"/><text fill="#000000" font-family="sans-serif" font-size="14" lengthAdjust="spacing" textLength="57" x="477.5" y="146.5332">Ingestion</text><!--MD5=[9106ab025b91f2c44f6ae17f45bd9f69]
entity Encoding--><rect fill="#FEFECE" filter="url(#f1r0vvyby0ap5v)" height="47.6094" style="stroke:#A80036;stroke-width:1.5;" width="99" x="328.5" y="112"/><rect fill="#FEFECE" height="10" style="stroke:#A80036;stroke-width:1.5;" width="15" x="407.5" y="117"/><rect fill="#FEFECE" height="2" style="stroke:#A80036;stroke-width:1.5;" width="4" x="405.5" y="119"/><rect fill="#FEFECE" height="2" style="stroke:#A80036;stroke-width:1.5;" width="4" x="405.5" y="123"/><text fill="#000000" font-family="sans-serif" font-size="14" lengthAdjust="spacing" textLength="59" x="343.5" y="146.5332">Encoding</text><!--MD5=[cfc95a63737f2eef6c034fe978702ae1]
entity PGA_Platform--><rect fill="#FEFECE" filter="url(#f1r0vvyby0ap5v)" height="65.2188" style="stroke:#A80036;stroke-width:1.5;" width="199" x="411.5" y="220"/><rect fill="#FEFECE" height="10" style="stroke:#A80036;stroke-width:1.5;" width="15" x="590.5" y="225"/><rect fill="#FEFECE" height="2" style="stroke:#A80036;stroke-width:1.5;" width="4" x="588.5" y="227"/><rect fill="#FEFECE" height="2" style="stroke:#A80036;stroke-width:1.5;" width="4" x="588.5" y="231"/><text fill="#000000" font-family="sans-serif" font-size="14" font-style="italic" lengthAdjust="spacing" textLength="159" x="426.5" y="254.5332">«MiddlewareAbstraction»</text><text fill="#000000" font-family="sans-serif" font-size="14" lengthAdjust="spacing" textLength="157" x="427.5" y="272.1426">ProtocolGatewayAdapter</text><!--MD5=[de6e54cb32731c529be9d752a91dbab1]
entity Talent--><rect fill="#FEFECE" filter="url(#f1r0vvyby0ap5v)" height="47.6094" style="stroke:#A80036;stroke-width:1.5;" width="80" x="167" y="112"/><rect fill="#FEFECE" height="10" style="stroke:#A80036;stroke-width:1.5;" width="15" x="227" y="117"/><rect fill="#FEFECE" height="2" style="stroke:#A80036;stroke-width:1.5;" width="4" x="225" y="119"/><rect fill="#FEFECE" height="2" style="stroke:#A80036;stroke-width:1.5;" width="4" x="225" y="123"/><text fill="#000000" font-family="sans-serif" font-size="14" lengthAdjust="spacing" textLength="40" x="182" y="146.5332">Talent</text><!--MD5=[c7499e98a7adb536cd36f7d86758aeea]
entity PGA_Talent--><rect fill="#FEFECE" filter="url(#f1r0vvyby0ap5v)" height="65.2188" style="stroke:#A80036;stroke-width:1.5;" width="199" x="56.5" y="220"/><rect fill="#FEFECE" height="10" style="stroke:#A80036;stroke-width:1.5;" width="15" x="235.5" y="225"/><rect fill="#FEFECE" height="2" style="stroke:#A80036;stroke-width:1.5;" width="4" x="233.5" y="227"/><rect fill="#FEFECE" height="2" style="stroke:#A80036;stroke-width:1.5;" width="4" x="233.5" y="231"/><text fill="#000000" font-family="sans-serif" font-size="14" font-style="italic" lengthAdjust="spacing" textLength="159" x="71.5" y="254.5332">«MiddlewareAbstraction»</text><text fill="#000000" font-family="sans-serif" font-size="14" lengthAdjust="spacing" textLength="157" x="72.5" y="272.1426">ProtocolGatewayAdapter</text><!--MD5=[97db3ed258f199931cb7ec9b00ff5adb]
entity SDK--><rect fill="#FEFECE" filter="url(#f1r0vvyby0ap5v)" height="47.6094" style="stroke:#A80036;stroke-width:1.5;" width="68" x="64" y="112"/><rect fill="#FEFECE" height="10" style="stroke:#A80036;stroke-width:1.5;" width="15" x="112" y="117"/><rect fill="#FEFECE" height="2" style="stroke:#A80036;stroke-width:1.5;" width="4" x="110" y="119"/><rect fill="#FEFECE" height="2" style="stroke:#A80036;stroke-width:1.5;" width="4" x="110" y="123"/><text fill="#000000" font-family="sans-serif" font-size="14" lengthAdjust="spacing" textLength="28" x="79" y="146.5332">SDK</text><!--MD5=[813b17cf9d151d5aa05a8c71a0fcb692]
entity Mosquitto--><rect fill="#FEFECE" filter="url(#f1r0vvyby0ap5v)" height="65.2188" style="stroke:#A80036;stroke-width:1.5;" width="128" x="182" y="422"/><rect fill="#FEFECE" height="10" style="stroke:#A80036;stroke-width:1.5;" width="15" x="290" y="427"/><rect fill="#FEFECE" height="2" style="stroke:#A80036;stroke-width:1.5;" width="4" x="288" y="429"/><rect fill="#FEFECE" height="2" style="stroke:#A80036;stroke-width:1.5;" width="4" x="288" y="433"/><text fill="#000000" font-family="sans-serif" font-size="14" font-style="italic" lengthAdjust="spacing" textLength="88" x="197" y="456.5332">«Middleware»</text><text fill="#000000" font-family="sans-serif" font-size="14" lengthAdjust="spacing" textLength="61" x="210.5" y="474.1426">Mosquitto</text><path d="M345.5,433 L345.5,450.5 L310.33,454.5 L345.5,458.5 L345.5,475.7031 A0,0 0 0 0 345.5,475.7031 L862.5,475.7031 A0,0 0 0 0 862.5,475.7031 L862.5,443 L852.5,433 L345.5,433 A0,0 0 0 0 345.5,433 " fill="#FBFB77" filter="url(#f1r0vvyby0ap5v)" style="stroke:#A80036;stroke-width:1.0;"/><path d="M852.5,433 L852.5,443 L862.5,443 L852.5,433 " fill="#FBFB77" style="stroke:#A80036;stroke-width:1.0;"/><text fill="#000000" font-family="sans-serif" font-size="13" lengthAdjust="spacing" textLength="357" x="351.5" y="451.4951">This is the default used Middleware which is an MQTT Broker.</text><text fill="#000000" font-family="sans-serif" font-size="13" lengthAdjust="spacing" textLength="496" x="351.5" y="467.8467">It could be replaced by other MQTT Brokers or with other Middlewares (e.g. SOME/IP)</text><!--MD5=[7f5e8455ec0809130dc1fa4badb59631]
entity Ethernet--><rect fill="#FEFECE" filter="url(#f1r0vvyby0ap5v)" height="65.2188" style="stroke:#A80036;stroke-width:1.5;" width="190" x="151" y="584"/><rect fill="#FEFECE" height="10" style="stroke:#A80036;stroke-width:1.5;" width="15" x="321" y="589"/><rect fill="#FEFECE" height="2" style="stroke:#A80036;stroke-width:1.5;" width="4" x="319" y="591"/><rect fill="#FEFECE" height="2" style="stroke:#A80036;stroke-width:1.5;" width="4" x="319" y="595"/><text fill="#000000" font-family="sans-serif" font-size="14" font-style="italic" lengthAdjust="spacing" textLength="150" x="166" y="618.5332">«TransmissionMedium»</text><text fill="#000000" font-family="sans-serif" font-size="14" lengthAdjust="spacing" textLength="54" x="214" y="636.1426">Ethernet</text><path d="M376.5,595 L376.5,612.5 L341.1,616.5 L376.5,620.5 L376.5,637.7031 A0,0 0 0 0 376.5,637.7031 L839.5,637.7031 A0,0 0 0 0 839.5,637.7031 L839.5,605 L829.5,595 L376.5,595 A0,0 0 0 0 376.5,595 " fill="#FBFB77" filter="url(#f1r0vvyby0ap5v)" style="stroke:#A80036;stroke-width:1.0;"/><path d="M829.5,595 L829.5,605 L839.5,605 L829.5,595 " fill="#FBFB77" style="stroke:#A80036;stroke-width:1.0;"/><text fill="#000000" font-family="sans-serif" font-size="13" lengthAdjust="spacing" textLength="426" x="382.5" y="613.4951">This is default used transmission medium for the Mosquitto MQTT Broker.</text><text fill="#000000" font-family="sans-serif" font-size="13" lengthAdjust="spacing" textLength="442" x="382.5" y="629.8467">It could be replaced by any other which can be used by the used Middleware</text><!--MD5=[0345c31fe7ad6d6c62a7dac5ff52d85a]
link Routing to PGA_Platform--><path d="M608.96,163.87 C591.45,179.53 569.18,199.46 550.29,216.35 " fill="none" id="Routing-PGA_Platform" style="stroke:#A80036;stroke-width:1.0;"/><polygon fill="#A80036" points="546.56,219.69,555.9313,216.6604,550.2828,216.3523,550.5909,210.7038,546.56,219.69" style="stroke:#A80036;stroke-width:1.0;"/><polygon fill="#A80036" points="613.1,160.17,603.7287,163.1996,609.3772,163.5077,609.0691,169.1562,613.1,160.17" style="stroke:#A80036;stroke-width:1.0;"/><!--MD5=[4bbc3f107466b9ee52ecaabc8c4fe7b8]
link Encoding to PGA_Platform--><path d="M408.74,163.47 C427.07,179.24 450.54,199.45 470.38,216.53 " fill="none" id="Encoding-PGA_Platform" style="stroke:#A80036;stroke-width:1.0;"/><polygon fill="#A80036" points="474.3,219.9,470.0699,211.0059,470.5037,216.646,464.8635,217.0799,474.3,219.9" style="stroke:#A80036;stroke-width:1.0;"/><polygon fill="#A80036" points="404.91,160.17,409.1043,169.0811,408.6932,163.4392,414.335,163.0281,404.91,160.17" style="stroke:#A80036;stroke-width:1.0;"/><!--MD5=[d08e0f4e20e2b120768aede468237808]
link Ingestion to PGA_Platform--><path d="M511,165.57 C511,180.35 511,198.56 511,214.41 " fill="none" id="Ingestion-PGA_Platform" style="stroke:#A80036;stroke-width:1.0;"/><polygon fill="#A80036" points="511,219.69,515,210.69,511,214.69,507,210.69,511,219.69" style="stroke:#A80036;stroke-width:1.0;"/><polygon fill="#A80036" points="511,160.17,507,169.17,511,165.17,515,169.17,511,160.17" style="stroke:#A80036;stroke-width:1.0;"/><!--MD5=[3190310cb57cebbc9028e0ab6789ace3]
link ConfigManager to PGA_Platform--><path d="M726.55,162.08 C686.99,178.49 634.85,200.12 591.76,218 " fill="none" id="ConfigManager-PGA_Platform" style="stroke:#A80036;stroke-width:1.0;"/><polygon fill="#A80036" points="587.08,219.94,596.9255,220.1967,591.7004,218.0291,593.868,212.804,587.08,219.94" style="stroke:#A80036;stroke-width:1.0;"/><polygon fill="#A80036" points="731.48,160.03,721.6345,159.7733,726.8596,161.9409,724.692,167.166,731.48,160.03" style="stroke:#A80036;stroke-width:1.0;"/><!--MD5=[f20732f177bf2bfbfe5bd84e0f5fac92]
reverse link SDK to Talent--><path d="M152.2,136 C157.1,136 162,136 166.9,136 " fill="none" id="SDK-backto-Talent" style="stroke:#A80036;stroke-width:1.0;stroke-dasharray:7.0,7.0;"/><polygon fill="none" points="152.06,143,132.06,136,152.06,129,152.06,143" style="stroke:#A80036;stroke-width:1.0;"/><!--MD5=[14ce672749c54d346fb72376eccef102]
reverse link SDK to PGA_Talent--><path d="M118.88,178.23 C125.8,191.88 133.38,206.85 139.88,219.69 " fill="none" id="SDK-backto-PGA_Talent" style="stroke:#A80036;stroke-width:1.0;stroke-dasharray:7.0,7.0;"/><polygon fill="none" points="112.53,181.18,109.74,160.17,125.02,174.85,112.53,181.18" style="stroke:#A80036;stroke-width:1.0;"/><!--MD5=[6b01a4719b61abd1988f8e300874d6cd]
link Talent to PGA_Talent--><path d="M194.46,165.15 C187.8,180.11 179.52,198.69 172.36,214.78 " fill="none" id="Talent-PGA_Talent" style="stroke:#A80036;stroke-width:1.0;"/><polygon fill="#A80036" points="170.17,219.69,177.4843,213.0945,172.2033,215.1221,170.1757,209.8411,170.17,219.69" style="stroke:#A80036;stroke-width:1.0;"/><polygon fill="#A80036" points="196.68,160.17,189.3657,166.7655,194.6467,164.7379,196.6743,170.0189,196.68,160.17" style="stroke:#A80036;stroke-width:1.0;"/><!--MD5=[9667957cb2aa774be4b1a00fa292fc47]
link PGA_Platform to Mosquitto--><path d="M437.49,287.52 C402.48,305.55 361.12,329.63 328,357 C306.73,374.58 286.61,398.11 271.62,417.54 " fill="none" id="PGA_Platform-Mosquitto" style="stroke:#A80036;stroke-width:1.0;"/><polygon fill="#A80036" points="268.31,421.87,276.9482,417.139,271.3419,417.8942,270.5868,412.2879,268.31,421.87" style="stroke:#A80036;stroke-width:1.0;"/><polygon fill="#A80036" points="442.17,285.12,432.335,285.6426,437.7151,287.3903,435.9674,292.7704,442.17,285.12" style="stroke:#A80036;stroke-width:1.0;"/><!--MD5=[744e9b838b6db6225bdc428985b8cfed]
link PGA_Talent to Mosquitto--><path d="M172.49,290.15 C188.76,326.29 213.47,381.21 229.68,417.22 " fill="none" id="PGA_Talent-Mosquitto" style="stroke:#A80036;stroke-width:1.0;"/><polygon fill="#A80036" points="231.81,421.96,231.7529,412.1113,229.7528,417.4028,224.4613,415.4028,231.81,421.96" style="stroke:#A80036;stroke-width:1.0;"/><polygon fill="#A80036" points="170.26,285.19,170.3171,295.0387,172.3172,289.7472,177.6087,291.7472,170.26,285.19" style="stroke:#A80036;stroke-width:1.0;"/><!--MD5=[8836488ea5148f195366f058558c1e4d]
link Mosquitto to Ethernet--><path d="M246,492.17 C246,518.16 246,552.9 246,578.88 " fill="none" id="Mosquitto-Ethernet" style="stroke:#A80036;stroke-width:1.0;"/><polygon fill="#A80036" points="246,583.95,250,574.95,246,578.95,242,574.95,246,583.95" style="stroke:#A80036;stroke-width:1.0;"/><polygon fill="#A80036" points="246,487.11,242,496.11,246,492.11,250,496.11,246,487.11" style="stroke:#A80036;stroke-width:1.0;"/><!--MD5=[05bd8f4f98ce3773e5bd072df566b309]
link Platform to Transport--><text fill="#888888" font-family="sans-serif" font-size="10" lengthAdjust="spacing" textLength="151" x="784" y="681.3809">IoT Event Analytics Version: 0.4</text><!--MD5=[b7ed897c41a46f61742a14b02d8c8512]
@startuml
/'
  Copyright (c) 2021 Bosch.IO GmbH

  This Source Code Form is subject to the terms of the Mozilla Public
  License, v. 2.0. If a copy of the MPL was not distributed with this
  file, You can obtain one at https://mozilla.org/MPL/2.0/.

  SPDX-License-Identifier: MPL-2.0
'/

    skinparam backgroundColor #FFFFF
    top to bottom direction

    right footer "IoT Event Analytics Version: 0.4"

    node Application #LightGray {
        node Platform #LightBlue {
            component ConfigManager
            component Routing
            component Ingestion
            component Encoding
            component ProtocolGatewayAdapter as PGA_Platform <<MiddlewareAbstraction>>

            Routing       <-down-> PGA_Platform
            Encoding      <-down-> PGA_Platform
            Ingestion     <-down-> PGA_Platform
            ConfigManager <-down-> PGA_Platform
      }

      node Client #LightGreen {
          component Talent
          component ProtocolGatewayAdapter as PGA_Talent <<MiddlewareAbstraction>>

          component SDK as SDK

          Talent .left.|> SDK
          PGA_Talent .up.|> SDK

          Talent <-down-> PGA_Talent
      }
    }

    node "Transport Layer" as Transport #LightSlateGray {
        component Mosquitto <<Middleware>>
        note right of Mosquitto
            This is the default used Middleware which is an MQTT Broker.
            It could be replaced by other MQTT Brokers or with other Middlewares (e.g. SOME/IP)
        end note
    }

    PGA_Platform <-down-> Mosquitto
    PGA_Talent   <-down-> Mosquitto

    node "Physical Layer" as Physical #LightGray {
      component Ethernet <<TransmissionMedium>>

      note right of Ethernet
           This is default used transmission medium for the Mosquitto MQTT Broker.
           It could be replaced by any other which can be used by the used Middleware
      end note
    }

    Mosquitto <-down-> Ethernet

    Platform -[hidden]down-> Transport

@enduml

@startuml

    skinparam backgroundColor #FFFFF
    top to bottom direction

    right footer "IoT Event Analytics Version: 0.4"

    node Application #LightGray {
        node Platform #LightBlue {
            component ConfigManager
            component Routing
            component Ingestion
            component Encoding
            component ProtocolGatewayAdapter as PGA_Platform <<MiddlewareAbstraction>>

            Routing       <-down-> PGA_Platform
            Encoding      <-down-> PGA_Platform
            Ingestion     <-down-> PGA_Platform
            ConfigManager <-down-> PGA_Platform
      }

      node Client #LightGreen {
          component Talent
          component ProtocolGatewayAdapter as PGA_Talent <<MiddlewareAbstraction>>

          component SDK as SDK

          Talent .left.|> SDK
          PGA_Talent .up.|> SDK

          Talent <-down-> PGA_Talent
      }
    }

    node "Transport Layer" as Transport #LightSlateGray {
        component Mosquitto <<Middleware>>
        note right of Mosquitto
            This is the default used Middleware which is an MQTT Broker.
            It could be replaced by other MQTT Brokers or with other Middlewares (e.g. SOME/IP)
        end note
    }

    PGA_Platform <-down-> Mosquitto
    PGA_Talent   <-down-> Mosquitto

    node "Physical Layer" as Physical #LightGray {
      component Ethernet <<TransmissionMedium>>

      note right of Ethernet
           This is default used transmission medium for the Mosquitto MQTT Broker.
           It could be replaced by any other which can be used by the used Middleware
      end note
    }

    Mosquitto <-down-> Ethernet

    Platform -[hidden]down-> Transport

@enduml

PlantUML version 1.2021.00(Sun Jan 10 11:25:05 CET 2021)
(GPL source distribution)
Java Runtime: OpenJDK Runtime Environment
JVM: OpenJDK 64-Bit Server VM
Default Encoding: Cp1252
Language: en
Country: US
--></g></svg>